# xmcd
#
# Track frame offsets: 
#        150
#        11227
#        23765
#        35607
#        46890
#        56575
#        68317
#        80697
#        90197
#        102612
#        114835
#        128440
#        139605
#        151047
#        162557
#        175767
#        188377
#        198485
#        209745
#        222182
#        234082
#        243127
#        253020
#        264250
#        276122
#        286847
#        297700
#        306262
#        316717
#
# Disc length: 4346 seconds
#
# Revision: 1
# Processed by: cddbd v1.5.2PL0 Copyright (c) Steve Scherf et al.
# Submitted via: ExactAudioCopy v1.3
#
DISCID=8710f81d
DTITLE=Charlie Walker - Pick Me Up On Your Way Down_CD2
DYEAR=1999
DGENRE=Country
TTITLE0=I'll Catch You When You Fall
TTITLE1=I Don't Mind Saying
TTITLE2=Broken Hearts Will Haunt Your Soul
TTITLE3=Bow Down Your Head And Cry
TTITLE4=When My Conscience Hurts The Most
TTITLE5=Who Will Buy The Wine
TTITLE6=I Go Anywhere
TTITLE7=Take Back Your Old Love Letters
TTITLE8=A Way To Free Myself
TTITLE9=Right Back At Your Door
TTITLE10=Facing The Wall
TTITLE11=I Walked Out Of Heaven (When I Walked Out Of You)
TTITLE12=Good Deal, Lucille
TTITLE13=Louisiana Belle
TTITLE14=Life Goes On (I Wonder Why)
TTITLE15=I Only Meant To Borrow (Not To Steal)
TTITLE16=Running Back To You
TTITLE17=One In Every Crowd
TTITLE18=What's Wrong With Me
TTITLE19=There's Where Katie Waits
TTITLE20=Truck Driving Man
TTITLE21=Close All The Honky Tonks
TTITLE22=The Bad Things I Do
TTITLE23=I Am Nothing
TTITLE24=Last Call For Alcohol
TTITLE25=Wild Side Of Life
TTITLE26=Honky Tonk Blues
TTITLE27=Fraulein
TTITLE28=Pick Me Up On Your Way Down
EXTD=
EXTT0=
EXTT1=
EXTT2=
EXTT3=
EXTT4=
EXTT5=
EXTT6=
EXTT7=
EXTT8=
EXTT9=
EXTT10=
EXTT11=
EXTT12=
EXTT13=
EXTT14=
EXTT15=
EXTT16=
EXTT17=
EXTT18=
EXTT19=
EXTT20=
EXTT21=
EXTT22=
EXTT23=
EXTT24=
EXTT25=
EXTT26=
EXTT27=
EXTT28=
PLAYORDER=
